<svg width="503" height="997" viewBox="0 0 503 997" fill="none" xmlns="http://www.w3.org/2000/svg">
<rect x="101.463" y="56.5312" width="10.0482" height="48.5166" rx="5.02408" transform="rotate(-9 101.463 56.5312)" fill="#3A1329" fill-opacity="0.37"/>
<rect x="110.445" y="197" width="10.0482" height="48.5166" rx="5.02408" transform="rotate(33.0356 110.445 197)" fill="#3A1329" fill-opacity="0.37"/>
<rect x="65.4453" y="603" width="10.0482" height="48.5166" rx="5.02408" transform="rotate(33.0356 65.4453 603)" fill="#3A1329" fill-opacity="0.37"/>
<path d="M63.7474 263.123C64.3977 260.784 66.7552 259.354 69.1297 259.859C71.612 260.387 73.1965 262.827 72.6689 265.309L64.4914 303.781C63.9643 306.26 61.5267 307.843 59.0468 307.316C56.6711 306.811 55.0999 304.543 55.4621 302.142L58.4996 282L63.7474 263.123Z" fill="#3A1329" fill-opacity="0.25"/>
<path d="M18.7474 669.123C19.3977 666.784 21.7552 665.354 24.1297 665.859C26.612 666.387 28.1965 668.827 27.6689 671.309L19.4914 709.781C18.9643 712.26 16.5267 713.843 14.0468 713.316C11.6711 712.811 10.0999 710.543 10.4621 708.142L13.4996 688L18.7474 669.123Z" fill="#3A1329" fill-opacity="0.25"/>
<rect x="94.393" y="18.0982" width="20.0963" height="43.1745" rx="5.79701" transform="rotate(-2 94.393 18.0982)" stroke="#3A1329" stroke-opacity="0.37" stroke-width="8.50228"/>
<rect x="102.98" y="93.8189" width="20.0963" height="43.1745" rx="5.79701" transform="rotate(-11 102.98 93.8189)" stroke="#3A1329" stroke-opacity="0.37" stroke-width="8.50228"/>
<rect x="116.574" y="163.411" width="20.0963" height="43.1745" rx="5.79701" transform="rotate(19.1552 116.574 163.411)" stroke="#3A1329" stroke-opacity="0.37" stroke-width="8.50228"/>
<rect x="71.574" y="569.411" width="20.0963" height="43.1745" rx="5.79701" transform="rotate(19.1552 71.574 569.411)" stroke="#3A1329" stroke-opacity="0.37" stroke-width="8.50228"/>
<rect x="83.8091" y="225.894" width="20.0963" height="43.1745" rx="5.79701" transform="rotate(33.6411 83.8091 225.894)" stroke="#3A1329" stroke-opacity="0.25" stroke-width="8.50228"/>
<rect x="38.8091" y="631.894" width="20.0963" height="43.1745" rx="5.79701" transform="rotate(33.6411 38.8091 631.894)" stroke="#3A1329" stroke-opacity="0.25" stroke-width="8.50228"/>
<rect x="49.3735" y="296.961" width="20.0963" height="43.1745" rx="5.79701" transform="rotate(-1.67426 49.3735 296.961)" stroke="#3A1329" stroke-opacity="0.25" stroke-width="8.50228"/>
<rect x="4.37353" y="702.961" width="20.0963" height="43.1745" rx="5.79701" transform="rotate(-1.67426 4.37353 702.961)" stroke="#3A1329" stroke-opacity="0.25" stroke-width="8.50228"/>
<rect x="62.4248" y="372.122" width="20.0963" height="43.1745" rx="5.79701" transform="rotate(-19.4651 62.4248 372.122)" stroke="#3A1329" stroke-opacity="0.25" stroke-width="8.50228"/>
<rect x="17.4248" y="778.122" width="20.0963" height="43.1745" rx="5.79701" transform="rotate(-19.4651 17.4248 778.122)" stroke="#3A1329" stroke-opacity="0.25" stroke-width="8.50228"/>
<rect x="97.1413" y="436.928" width="20.0963" height="43.1745" rx="5.79701" transform="rotate(-13.7784 97.1413 436.928)" stroke="#3A1329" stroke-opacity="0.37" stroke-width="8.50228"/>
<rect x="106.594" y="504.634" width="20.0963" height="43.1745" rx="5.79701" transform="rotate(24.5811 106.594 504.634)" stroke="#3A1329" stroke-opacity="0.37" stroke-width="8.50228"/>
<rect x="99.3672" width="10.0482" height="26.2091" rx="5.02408" transform="rotate(3 99.3672 0)" fill="#3A1329" fill-opacity="0.37"/>
<rect x="114.062" y="128.798" width="10.0482" height="44.9732" rx="5.02408" transform="rotate(-7.03677 114.062 128.798)" fill="#3A1329" fill-opacity="0.37"/>
<rect x="56" y="331.811" width="10.0482" height="48.5166" rx="5.02408" transform="rotate(-16.2402 56 331.811)" fill="#3A1329" fill-opacity="0.25"/>
<rect x="11" y="737.811" width="10.0482" height="48.5166" rx="5.02408" transform="rotate(-16.2402 11 737.811)" fill="#3A1329" fill-opacity="0.25"/>
<rect x="34" y="806.47" width="10.0482" height="48.5166" rx="5.02408" transform="rotate(-20.2006 34 806.47)" fill="#3A1329" fill-opacity="0.25"/>
<rect x="81" y="403.634" width="10.0482" height="48.5166" rx="5.02408" transform="rotate(-27.4609 81 403.634)" fill="#3A1329" fill-opacity="0.25"/>
<rect x="114.027" y="468" width="10.0482" height="48.5166" rx="5.02408" transform="rotate(5.94753 114.027 468)" fill="#3A1329" fill-opacity="0.37"/>
<rect x="95.7129" y="540" width="10.0482" height="48.5166" rx="5.02408" transform="rotate(29.2593 95.7129 540)" fill="#3A1329" fill-opacity="0.25"/>
<rect x="70.3242" y="865.343" width="10.0482" height="48.5166" rx="5.02408" transform="rotate(-36.7864 70.3242 865.343)" fill="#3A1329" fill-opacity="0.37"/>
<path d="M116.281 931.984C114.31 930.567 113.781 927.861 115.074 925.807C116.426 923.659 119.262 923.013 121.41 924.364L154.7 945.31C156.846 946.661 157.491 949.495 156.141 951.64C154.847 953.696 152.176 954.389 150.047 953.22L132.189 943.422L116.281 931.984Z" fill="#3A1329" fill-opacity="0.37"/>
<rect x="40.9104" y="848.005" width="20.0963" height="43.1745" rx="5.79701" transform="rotate(-50.6667 40.9104 848.005)" stroke="#3A1329" stroke-opacity="0.37" stroke-width="8.50228"/>
<rect x="88.2574" y="900.311" width="20.0963" height="43.1745" rx="5.79701" transform="rotate(-36.1809 88.2574 900.311)" stroke="#3A1329" stroke-opacity="0.25" stroke-width="8.50228"/>
<rect x="143.084" y="957.148" width="20.0963" height="43.1745" rx="5.79701" transform="rotate(-71.4962 143.084 957.148)" stroke="#3A1329" stroke-opacity="0.37" stroke-width="8.50228"/>
<rect x="218.134" y="970.823" width="20.0963" height="43.1745" rx="5.79701" transform="rotate(-89.287 218.134 970.823)" stroke="#3A1329" stroke-opacity="0.37" stroke-width="8.50228"/>
<rect x="290.938" y="960.591" width="20.0963" height="43.1745" rx="5.79701" transform="rotate(-83.6004 290.938 960.591)" stroke="#3A1329" stroke-opacity="0.37" stroke-width="8.50228"/>
<rect x="357.749" y="975.073" width="20.0963" height="43.1745" rx="5.79701" transform="rotate(-45.2409 357.749 975.073)" stroke="#3A1329" stroke-opacity="0.37" stroke-width="8.50228"/>
<rect x="178.08" y="962.948" width="10.0482" height="48.5166" rx="5.02408" transform="rotate(-86.0622 178.08 962.948)" fill="#3A1329" fill-opacity="0.37"/>
<rect x="254.119" y="964.258" width="10.0482" height="48.5166" rx="5.02408" transform="rotate(-97.2828 254.119 964.258)" fill="#3A1329" fill-opacity="0.37"/>
<rect x="325.927" y="955.46" width="10.0482" height="48.5166" rx="5.02408" transform="rotate(-63.8744 325.927 955.46)" fill="#3A1329" fill-opacity="0.37"/>
<rect x="387.19" y="997.485" width="10.0482" height="48.5166" rx="5.02408" transform="rotate(-40.5627 387.19 997.485)" fill="#3A1329" fill-opacity="0.25"/>
</svg>
