<svg width="503" height="1187" viewBox="0 0 503 1187" fill="none" xmlns="http://www.w3.org/2000/svg">
<rect x="401.268" y="1082.54" width="10.0482" height="48.5166" rx="5.02408" transform="rotate(171 401.268 1082.54)" fill="#3A1329" fill-opacity="0.37"/>
<rect x="392.285" y="942.075" width="10.0482" height="48.5166" rx="5.02408" transform="rotate(-146.964 392.285 942.075)" fill="#3A1329" fill-opacity="0.37"/>
<rect x="437.285" y="536.075" width="10.0482" height="48.5166" rx="5.02408" transform="rotate(-146.964 437.285 536.075)" fill="#3A1329" fill-opacity="0.37"/>
<path d="M438.984 875.952C438.334 878.291 435.976 879.721 433.602 879.216C431.119 878.689 429.535 876.249 430.063 873.766L438.24 835.295C438.767 832.815 441.205 831.232 443.685 831.759C446.06 832.264 447.632 834.532 447.269 836.934L444.232 857.075L438.984 875.952Z" fill="#3A1329" fill-opacity="0.37"/>
<path d="M483.984 469.952C483.334 472.291 480.976 473.721 478.602 473.216C476.119 472.689 474.535 470.249 475.063 467.766L483.24 429.295C483.767 426.815 486.205 425.232 488.685 425.759C491.06 426.264 492.632 428.532 492.269 430.934L489.232 451.075L483.984 469.952Z" fill="#3A1329" fill-opacity="0.37"/>
<rect x="408.337" y="1120.98" width="20.0963" height="43.1745" rx="5.79701" transform="rotate(178 408.337 1120.98)" stroke="#3A1329" stroke-opacity="0.37" stroke-width="8.50228"/>
<rect x="402.702" y="1177.36" width="20.0963" height="43.1745" rx="5.79701" transform="rotate(-171.979 402.702 1177.36)" stroke="#3A1329" stroke-opacity="0.37" stroke-width="8.50228"/>
<rect x="399.75" y="1045.26" width="20.0963" height="43.1745" rx="5.79701" transform="rotate(169 399.75 1045.26)" stroke="#3A1329" stroke-opacity="0.37" stroke-width="8.50228"/>
<rect x="386.156" y="975.665" width="20.0963" height="43.1745" rx="5.79701" transform="rotate(-160.845 386.156 975.665)" stroke="#3A1329" stroke-opacity="0.37" stroke-width="8.50228"/>
<rect x="431.156" y="569.665" width="20.0963" height="43.1745" rx="5.79701" transform="rotate(-160.845 431.156 569.665)" stroke="#3A1329" stroke-opacity="0.37" stroke-width="8.50228"/>
<rect x="418.921" y="913.181" width="20.0963" height="43.1745" rx="5.79701" transform="rotate(-146.359 418.921 913.181)" stroke="#3A1329" stroke-opacity="0.37" stroke-width="8.50228"/>
<rect x="463.921" y="507.181" width="20.0963" height="43.1745" rx="5.79701" transform="rotate(-146.359 463.921 507.181)" stroke="#3A1329" stroke-opacity="0.37" stroke-width="8.50228"/>
<rect x="453.357" y="842.114" width="20.0963" height="43.1745" rx="5.79701" transform="rotate(178.326 453.357 842.114)" stroke="#3A1329" stroke-opacity="0.37" stroke-width="8.50228"/>
<rect x="498.357" y="436.115" width="20.0963" height="43.1745" rx="5.79701" transform="rotate(178.326 498.357 436.115)" stroke="#3A1329" stroke-opacity="0.37" stroke-width="8.50228"/>
<rect x="440.306" y="766.953" width="20.0963" height="43.1745" rx="5.79701" transform="rotate(160.535 440.306 766.953)" stroke="#3A1329" stroke-opacity="0.37" stroke-width="8.50228"/>
<rect x="485.306" y="360.953" width="20.0963" height="43.1745" rx="5.79701" transform="rotate(160.535 485.306 360.953)" stroke="#3A1329" stroke-opacity="0.37" stroke-width="8.50228"/>
<rect x="405.589" y="702.147" width="20.0963" height="43.1745" rx="5.79701" transform="rotate(166.222 405.589 702.147)" stroke="#3A1329" stroke-opacity="0.37" stroke-width="8.50228"/>
<rect x="396.137" y="634.441" width="20.0963" height="43.1745" rx="5.79701" transform="rotate(-155.419 396.137 634.441)" stroke="#3A1329" stroke-opacity="0.37" stroke-width="8.50228"/>
<rect x="403.363" y="1139.08" width="10.0482" height="26.2091" rx="5.02408" transform="rotate(-177 403.363 1139.08)" fill="#3A1329" fill-opacity="0.37"/>
<rect x="397.033" y="1195.7" width="10.0482" height="26.2091" rx="5.02408" transform="rotate(-177 397.033 1195.7)" fill="#3A1329" fill-opacity="0.37"/>
<rect x="388.668" y="1010.28" width="10.0482" height="44.9732" rx="5.02408" transform="rotate(172.963 388.668 1010.28)" fill="#3A1329" fill-opacity="0.37"/>
<rect x="446.73" y="807.265" width="10.0482" height="48.5166" rx="5.02408" transform="rotate(163.76 446.73 807.265)" fill="#3A1329" fill-opacity="0.37"/>
<rect x="491.73" y="401.266" width="10.0482" height="48.5166" rx="5.02408" transform="rotate(163.76 491.73 401.266)" fill="#3A1329" fill-opacity="0.37"/>
<rect x="468.73" y="332.605" width="10.0482" height="48.5166" rx="5.02408" transform="rotate(159.799 468.73 332.605)" fill="#3A1329" fill-opacity="0.37"/>
<rect x="421.73" y="735.441" width="10.0482" height="48.5166" rx="5.02408" transform="rotate(152.539 421.73 735.441)" fill="#3A1329" fill-opacity="0.37"/>
<rect x="388.703" y="671.075" width="10.0482" height="48.5166" rx="5.02408" transform="rotate(-174.052 388.703 671.075)" fill="#3A1329" fill-opacity="0.37"/>
<rect x="407.018" y="599.075" width="10.0482" height="48.5166" rx="5.02408" transform="rotate(-150.741 407.018 599.075)" fill="#3A1329" fill-opacity="0.37"/>
<rect x="432.406" y="273.732" width="10.0482" height="48.5166" rx="5.02408" transform="rotate(143.214 432.406 273.732)" fill="#3A1329" fill-opacity="0.37"/>
<rect x="66.8457" y="91.4492" width="10.0482" height="48.5166" rx="5.02408" transform="rotate(143.214 66.8457 91.4492)" fill="#3A1329" fill-opacity="0.37"/>
<path d="M386.449 207.091C388.421 208.508 388.949 211.214 387.656 213.269C386.305 215.417 383.468 216.062 381.32 214.711L348.03 193.765C345.885 192.415 345.24 189.581 346.59 187.435C347.883 185.379 350.554 184.687 352.683 185.855L370.541 195.654L386.449 207.091Z" fill="#3A1329" fill-opacity="0.37"/>
<rect x="461.82" y="291.07" width="20.0963" height="43.1745" rx="5.79701" transform="rotate(129.333 461.82 291.07)" stroke="#3A1329" stroke-opacity="0.37" stroke-width="8.50228"/>
<rect x="96.2595" y="108.787" width="20.0963" height="43.1745" rx="5.79701" transform="rotate(129.333 96.2595 108.787)" stroke="#3A1329" stroke-opacity="0.37" stroke-width="8.50228"/>
<rect x="414.473" y="238.764" width="20.0963" height="43.1745" rx="5.79701" transform="rotate(143.819 414.473 238.764)" stroke="#3A1329" stroke-opacity="0.37" stroke-width="8.50228"/>
<rect x="48.9145" y="56.4806" width="20.0963" height="43.1745" rx="5.79701" transform="rotate(143.819 48.9145 56.4806)" stroke="#3A1329" stroke-opacity="0.37" stroke-width="8.50228"/>
<rect x="359.647" y="181.927" width="20.0963" height="43.1745" rx="5.79701" transform="rotate(108.504 359.647 181.927)" stroke="#3A1329" stroke-opacity="0.37" stroke-width="8.50228"/>
<rect x="284.597" y="168.253" width="20.0963" height="43.1745" rx="5.79701" transform="rotate(90.713 284.597 168.253)" stroke="#3A1329" stroke-opacity="0.37" stroke-width="8.50228"/>
<rect x="211.794" y="178.484" width="20.0963" height="43.1745" rx="5.79701" transform="rotate(96.3996 211.794 178.484)" stroke="#3A1329" stroke-opacity="0.37" stroke-width="8.50228"/>
<rect x="144.982" y="164.002" width="20.0963" height="43.1745" rx="5.79701" transform="rotate(134.759 144.982 164.002)" stroke="#3A1329" stroke-opacity="0.37" stroke-width="8.50228"/>
<rect x="324.65" y="176.127" width="10.0482" height="48.5166" rx="5.02408" transform="rotate(93.9378 324.65 176.127)" fill="#3A1329" fill-opacity="0.37"/>
<rect x="248.611" y="174.817" width="10.0482" height="48.5166" rx="5.02408" transform="rotate(82.7172 248.611 174.817)" fill="#3A1329" fill-opacity="0.37"/>
<rect x="176.803" y="183.615" width="10.0482" height="48.5166" rx="5.02408" transform="rotate(116.126 176.803 183.615)" fill="#3A1329" fill-opacity="0.37"/>
<rect x="115.539" y="141.59" width="10.0482" height="48.5166" rx="5.02408" transform="rotate(139.437 115.539 141.59)" fill="#3A1329" fill-opacity="0.37"/>
</svg>
